<svg id="visual" viewBox="0 0 960 540" width="960" height="540" xmlns="http://www.w3.org/2000/svg" xmlns:xlink="http://www.w3.org/1999/xlink" version="1.1"><rect x="0" y="0" width="960" height="540" fill="#119B34"></rect><g transform="translate(472.11009954843524 289.351355298279)"><path d="M149.8 -183.7C189 -145.6 212.2 -93.5 204 -49.4C195.9 -5.2 156.4 31.2 131 76C105.5 120.8 94.2 174.1 64.6 190.4C35.1 206.7 -12.5 186.1 -64.4 170.2C-116.3 154.3 -172.5 143.1 -186.3 111.4C-200 79.6 -171.4 27.2 -147.8 -12C-124.1 -51.3 -105.5 -77.3 -81.7 -118.1C-57.9 -158.9 -28.9 -214.5 13.2 -230.2C55.3 -245.9 110.6 -221.8 149.8 -183.7" fill="#BB004B"></path></g></svg>